<mxfile host="app.diagrams.net" modified="2023-06-05T06:34:17.194Z" agent="Mozilla/5.0 (Macintosh; Intel Mac OS X 10_15_7) AppleWebKit/605.1.15 (KHTML, like Gecko) Version/16.4 Safari/605.1.15" etag="ES3OYYSFhu9CI6LG8X8M" version="21.3.7" type="device">
  <diagram name="Page-1" id="5tE9PvvC92MBVU3yv-TN">
    <mxGraphModel dx="1781" dy="622" grid="1" gridSize="10" guides="1" tooltips="1" connect="1" arrows="1" fold="1" page="1" pageScale="1" pageWidth="827" pageHeight="1169" math="0" shadow="0">
      <root>
        <mxCell id="0" />
        <mxCell id="1" parent="0" />
        <mxCell id="9Ri4bayZUHAKm8TNs4ZH-6" style="edgeStyle=orthogonalEdgeStyle;rounded=0;orthogonalLoop=1;jettySize=auto;html=1;entryX=0;entryY=0.5;entryDx=0;entryDy=0;" parent="1" source="wkb4X_CLZkG0QTCTbJi_-1" target="9Ri4bayZUHAKm8TNs4ZH-5" edge="1">
          <mxGeometry relative="1" as="geometry">
            <Array as="points">
              <mxPoint x="420" y="430" />
            </Array>
          </mxGeometry>
        </mxCell>
        <mxCell id="wkb4X_CLZkG0QTCTbJi_-1" value="&amp;lt;FeedLoader&amp;gt;" style="rounded=0;whiteSpace=wrap;html=1;fillColor=#f8cecc;strokeColor=#b85450;" parent="1" vertex="1">
          <mxGeometry x="340" y="320" width="120" height="60" as="geometry" />
        </mxCell>
        <mxCell id="wkb4X_CLZkG0QTCTbJi_-16" style="edgeStyle=orthogonalEdgeStyle;rounded=0;orthogonalLoop=1;jettySize=auto;html=1;dashed=1;" parent="1" source="wkb4X_CLZkG0QTCTbJi_-2" target="wkb4X_CLZkG0QTCTbJi_-4" edge="1">
          <mxGeometry relative="1" as="geometry" />
        </mxCell>
        <mxCell id="wkb4X_CLZkG0QTCTbJi_-17" style="edgeStyle=orthogonalEdgeStyle;rounded=0;orthogonalLoop=1;jettySize=auto;html=1;dashed=1;" parent="1" source="wkb4X_CLZkG0QTCTbJi_-2" target="wkb4X_CLZkG0QTCTbJi_-5" edge="1">
          <mxGeometry relative="1" as="geometry" />
        </mxCell>
        <mxCell id="wkb4X_CLZkG0QTCTbJi_-2" value="Feed(Assembler/Builder/Factor" style="rounded=0;whiteSpace=wrap;html=1;fillColor=#f8cecc;strokeColor=#b85450;" parent="1" vertex="1">
          <mxGeometry x="290" y="20" width="220" height="70" as="geometry" />
        </mxCell>
        <mxCell id="wkb4X_CLZkG0QTCTbJi_-14" style="edgeStyle=orthogonalEdgeStyle;rounded=0;orthogonalLoop=1;jettySize=auto;html=1;entryX=0.75;entryY=0;entryDx=0;entryDy=0;exitX=0;exitY=0.75;exitDx=0;exitDy=0;" parent="1" source="wkb4X_CLZkG0QTCTbJi_-3" target="wkb4X_CLZkG0QTCTbJi_-4" edge="1">
          <mxGeometry relative="1" as="geometry">
            <Array as="points">
              <mxPoint x="170" y="185" />
            </Array>
          </mxGeometry>
        </mxCell>
        <mxCell id="wkb4X_CLZkG0QTCTbJi_-15" style="edgeStyle=orthogonalEdgeStyle;rounded=0;orthogonalLoop=1;jettySize=auto;html=1;exitX=1;exitY=0.75;exitDx=0;exitDy=0;entryX=0.25;entryY=0;entryDx=0;entryDy=0;" parent="1" source="wkb4X_CLZkG0QTCTbJi_-3" target="wkb4X_CLZkG0QTCTbJi_-5" edge="1">
          <mxGeometry relative="1" as="geometry" />
        </mxCell>
        <mxCell id="wkb4X_CLZkG0QTCTbJi_-18" style="edgeStyle=orthogonalEdgeStyle;rounded=0;orthogonalLoop=1;jettySize=auto;html=1;dashed=1;endArrow=block;endFill=0;" parent="1" source="wkb4X_CLZkG0QTCTbJi_-3" target="wkb4X_CLZkG0QTCTbJi_-1" edge="1">
          <mxGeometry relative="1" as="geometry" />
        </mxCell>
        <mxCell id="wkb4X_CLZkG0QTCTbJi_-3" value="RemoteWithLocalFallbackFeedService" style="rounded=0;whiteSpace=wrap;html=1;fillColor=#f8cecc;strokeColor=#b85450;" parent="1" vertex="1">
          <mxGeometry x="280" y="140" width="240" height="60" as="geometry" />
        </mxCell>
        <mxCell id="wkb4X_CLZkG0QTCTbJi_-12" style="edgeStyle=orthogonalEdgeStyle;rounded=0;orthogonalLoop=1;jettySize=auto;html=1;dashed=1;endArrow=block;endFill=0;" parent="1" source="wkb4X_CLZkG0QTCTbJi_-4" target="wkb4X_CLZkG0QTCTbJi_-1" edge="1">
          <mxGeometry relative="1" as="geometry" />
        </mxCell>
        <mxCell id="9Ri4bayZUHAKm8TNs4ZH-1" style="edgeStyle=orthogonalEdgeStyle;rounded=0;orthogonalLoop=1;jettySize=auto;html=1;" parent="1" source="wkb4X_CLZkG0QTCTbJi_-4" target="wkb4X_CLZkG0QTCTbJi_-20" edge="1">
          <mxGeometry relative="1" as="geometry" />
        </mxCell>
        <mxCell id="9Ri4bayZUHAKm8TNs4ZH-4" style="edgeStyle=orthogonalEdgeStyle;rounded=0;orthogonalLoop=1;jettySize=auto;html=1;entryX=1;entryY=0.5;entryDx=0;entryDy=0;exitX=0.25;exitY=1;exitDx=0;exitDy=0;" parent="1" source="wkb4X_CLZkG0QTCTbJi_-4" target="9Ri4bayZUHAKm8TNs4ZH-2" edge="1">
          <mxGeometry relative="1" as="geometry">
            <Array as="points">
              <mxPoint x="90" y="400" />
            </Array>
          </mxGeometry>
        </mxCell>
        <mxCell id="9Ri4bayZUHAKm8TNs4ZH-7" style="edgeStyle=orthogonalEdgeStyle;rounded=0;orthogonalLoop=1;jettySize=auto;html=1;" parent="1" source="wkb4X_CLZkG0QTCTbJi_-4" target="9Ri4bayZUHAKm8TNs4ZH-5" edge="1">
          <mxGeometry relative="1" as="geometry">
            <Array as="points">
              <mxPoint x="520" y="300" />
            </Array>
          </mxGeometry>
        </mxCell>
        <mxCell id="0OMT_AVmc9sH3o9Od09E-2" style="edgeStyle=orthogonalEdgeStyle;rounded=0;orthogonalLoop=1;jettySize=auto;html=1;entryX=1;entryY=0.5;entryDx=0;entryDy=0;exitX=0.5;exitY=1;exitDx=0;exitDy=0;" parent="1" source="wkb4X_CLZkG0QTCTbJi_-4" target="wkb4X_CLZkG0QTCTbJi_-19" edge="1">
          <mxGeometry relative="1" as="geometry">
            <Array as="points">
              <mxPoint x="130" y="480" />
            </Array>
          </mxGeometry>
        </mxCell>
        <mxCell id="wkb4X_CLZkG0QTCTbJi_-4" value="RemoteFeedLoader" style="rounded=0;whiteSpace=wrap;html=1;fillColor=#dae8fc;strokeColor=#6c8ebf;" parent="1" vertex="1">
          <mxGeometry x="50" y="290" width="160" height="60" as="geometry" />
        </mxCell>
        <mxCell id="wkb4X_CLZkG0QTCTbJi_-13" style="edgeStyle=orthogonalEdgeStyle;rounded=0;orthogonalLoop=1;jettySize=auto;html=1;entryX=1;entryY=0.5;entryDx=0;entryDy=0;dashed=1;endArrow=block;endFill=0;" parent="1" source="wkb4X_CLZkG0QTCTbJi_-5" target="wkb4X_CLZkG0QTCTbJi_-1" edge="1">
          <mxGeometry relative="1" as="geometry" />
        </mxCell>
        <mxCell id="mt7t5qOtKBUCOaAIjQfM-2" style="edgeStyle=orthogonalEdgeStyle;rounded=0;orthogonalLoop=1;jettySize=auto;html=1;entryX=0;entryY=0.5;entryDx=0;entryDy=0;" parent="1" source="wkb4X_CLZkG0QTCTbJi_-5" target="mt7t5qOtKBUCOaAIjQfM-1" edge="1">
          <mxGeometry relative="1" as="geometry" />
        </mxCell>
        <mxCell id="9Ri4bayZUHAKm8TNs4ZH-8" style="edgeStyle=orthogonalEdgeStyle;rounded=0;orthogonalLoop=1;jettySize=auto;html=1;entryX=1;entryY=0.5;entryDx=0;entryDy=0;" parent="1" source="wkb4X_CLZkG0QTCTbJi_-5" target="9Ri4bayZUHAKm8TNs4ZH-5" edge="1">
          <mxGeometry relative="1" as="geometry">
            <Array as="points">
              <mxPoint x="630" y="330" />
              <mxPoint x="630" y="430" />
            </Array>
          </mxGeometry>
        </mxCell>
        <mxCell id="9Ri4bayZUHAKm8TNs4ZH-10" style="edgeStyle=orthogonalEdgeStyle;rounded=0;orthogonalLoop=1;jettySize=auto;html=1;entryX=0;entryY=0.5;entryDx=0;entryDy=0;" parent="1" source="wkb4X_CLZkG0QTCTbJi_-5" target="9Ri4bayZUHAKm8TNs4ZH-9" edge="1">
          <mxGeometry relative="1" as="geometry">
            <Array as="points">
              <mxPoint x="770" y="300" />
              <mxPoint x="770" y="248" />
            </Array>
          </mxGeometry>
        </mxCell>
        <mxCell id="0OMT_AVmc9sH3o9Od09E-5" style="edgeStyle=orthogonalEdgeStyle;rounded=0;orthogonalLoop=1;jettySize=auto;html=1;" parent="1" source="wkb4X_CLZkG0QTCTbJi_-5" target="0OMT_AVmc9sH3o9Od09E-3" edge="1">
          <mxGeometry relative="1" as="geometry" />
        </mxCell>
        <mxCell id="wkb4X_CLZkG0QTCTbJi_-5" value="LocalFeedLoader" style="rounded=0;whiteSpace=wrap;html=1;fillColor=#e1d5e7;strokeColor=#9673a6;" parent="1" vertex="1">
          <mxGeometry x="655" y="295" width="130" height="50" as="geometry" />
        </mxCell>
        <mxCell id="wkb4X_CLZkG0QTCTbJi_-6" value="UITableViewController" style="rounded=0;whiteSpace=wrap;html=1;fillColor=#ffe6cc;strokeColor=#d79b00;" parent="1" vertex="1">
          <mxGeometry x="230" y="1080" width="170" height="40" as="geometry" />
        </mxCell>
        <mxCell id="wkb4X_CLZkG0QTCTbJi_-10" style="edgeStyle=orthogonalEdgeStyle;rounded=0;orthogonalLoop=1;jettySize=auto;html=1;entryX=0.5;entryY=0;entryDx=0;entryDy=0;endArrow=block;endFill=0;" parent="1" source="wkb4X_CLZkG0QTCTbJi_-7" target="wkb4X_CLZkG0QTCTbJi_-6" edge="1">
          <mxGeometry relative="1" as="geometry">
            <Array as="points">
              <mxPoint x="340" y="1040" />
              <mxPoint x="315" y="1040" />
            </Array>
          </mxGeometry>
        </mxCell>
        <mxCell id="9oJwUBDEAIhy3Kt25aec-3" style="edgeStyle=orthogonalEdgeStyle;rounded=0;orthogonalLoop=1;jettySize=auto;html=1;entryX=0.25;entryY=0;entryDx=0;entryDy=0;exitX=0.5;exitY=1;exitDx=0;exitDy=0;" parent="1" source="wkb4X_CLZkG0QTCTbJi_-7" target="9oJwUBDEAIhy3Kt25aec-2" edge="1">
          <mxGeometry relative="1" as="geometry">
            <Array as="points">
              <mxPoint x="380" y="1020" />
              <mxPoint x="550" y="1020" />
            </Array>
          </mxGeometry>
        </mxCell>
        <mxCell id="8CEh4J7_kmvw50hiCcKO-3" style="edgeStyle=orthogonalEdgeStyle;rounded=0;orthogonalLoop=1;jettySize=auto;html=1;" parent="1" source="wkb4X_CLZkG0QTCTbJi_-7" target="8CEh4J7_kmvw50hiCcKO-1" edge="1">
          <mxGeometry relative="1" as="geometry">
            <Array as="points">
              <mxPoint x="360" y="1040" />
              <mxPoint x="462" y="1040" />
            </Array>
          </mxGeometry>
        </mxCell>
        <mxCell id="SuTR34b2t1vn6Ia5oeuN-4" style="edgeStyle=orthogonalEdgeStyle;rounded=0;orthogonalLoop=1;jettySize=auto;html=1;entryX=0.25;entryY=1;entryDx=0;entryDy=0;" parent="1" source="wkb4X_CLZkG0QTCTbJi_-7" target="SuTR34b2t1vn6Ia5oeuN-2" edge="1">
          <mxGeometry relative="1" as="geometry">
            <Array as="points">
              <mxPoint x="430" y="810" />
              <mxPoint x="430" y="810" />
            </Array>
          </mxGeometry>
        </mxCell>
        <mxCell id="SuTR34b2t1vn6Ia5oeuN-8" style="edgeStyle=orthogonalEdgeStyle;rounded=0;orthogonalLoop=1;jettySize=auto;html=1;entryX=0;entryY=0.5;entryDx=0;entryDy=0;" parent="1" source="wkb4X_CLZkG0QTCTbJi_-7" target="SuTR34b2t1vn6Ia5oeuN-6" edge="1">
          <mxGeometry relative="1" as="geometry">
            <Array as="points">
              <mxPoint x="400" y="990" />
            </Array>
          </mxGeometry>
        </mxCell>
        <mxCell id="wkb4X_CLZkG0QTCTbJi_-7" value="FeedViewController" style="rounded=0;whiteSpace=wrap;html=1;fillColor=#ffe6cc;strokeColor=#d79b00;" parent="1" vertex="1">
          <mxGeometry x="290" y="910" width="160" height="40" as="geometry" />
        </mxCell>
        <mxCell id="wkb4X_CLZkG0QTCTbJi_-19" value="&amp;lt;HTTPClient&amp;gt;" style="rounded=0;whiteSpace=wrap;html=1;fillColor=#dae8fc;strokeColor=#6c8ebf;" parent="1" vertex="1">
          <mxGeometry x="-140" y="450" width="160" height="60" as="geometry" />
        </mxCell>
        <mxCell id="9Ri4bayZUHAKm8TNs4ZH-3" style="edgeStyle=orthogonalEdgeStyle;rounded=0;orthogonalLoop=1;jettySize=auto;html=1;" parent="1" source="wkb4X_CLZkG0QTCTbJi_-20" target="9Ri4bayZUHAKm8TNs4ZH-2" edge="1">
          <mxGeometry relative="1" as="geometry" />
        </mxCell>
        <mxCell id="wkb4X_CLZkG0QTCTbJi_-20" value="FeedItemsMapper" style="rounded=0;whiteSpace=wrap;html=1;fillColor=#dae8fc;strokeColor=#6c8ebf;" parent="1" vertex="1">
          <mxGeometry x="-140" y="290" width="160" height="60" as="geometry" />
        </mxCell>
        <mxCell id="wkb4X_CLZkG0QTCTbJi_-26" value="&lt;font color=&quot;#ccccff&quot;&gt;Feed Api module&lt;/font&gt;" style="text;html=1;align=center;verticalAlign=middle;resizable=0;points=[];autosize=1;strokeColor=none;fillColor=none;" parent="1" vertex="1">
          <mxGeometry x="-210" y="248" width="110" height="30" as="geometry" />
        </mxCell>
        <mxCell id="wkb4X_CLZkG0QTCTbJi_-28" style="edgeStyle=orthogonalEdgeStyle;rounded=0;orthogonalLoop=1;jettySize=auto;html=1;exitX=0.5;exitY=0;exitDx=0;exitDy=0;entryX=0.5;entryY=1;entryDx=0;entryDy=0;endArrow=block;endFill=0;dashed=1;" parent="1" source="wkb4X_CLZkG0QTCTbJi_-27" target="wkb4X_CLZkG0QTCTbJi_-19" edge="1">
          <mxGeometry relative="1" as="geometry" />
        </mxCell>
        <mxCell id="wkb4X_CLZkG0QTCTbJi_-30" style="edgeStyle=orthogonalEdgeStyle;rounded=0;orthogonalLoop=1;jettySize=auto;html=1;entryX=0.583;entryY=0.033;entryDx=0;entryDy=0;entryPerimeter=0;" parent="1" source="wkb4X_CLZkG0QTCTbJi_-27" target="wkb4X_CLZkG0QTCTbJi_-29" edge="1">
          <mxGeometry relative="1" as="geometry" />
        </mxCell>
        <mxCell id="wkb4X_CLZkG0QTCTbJi_-27" value="URLSession&amp;nbsp;&lt;br&gt;HTTPClient" style="rounded=0;whiteSpace=wrap;html=1;fillColor=#dae8fc;strokeColor=#6c8ebf;" parent="1" vertex="1">
          <mxGeometry x="-140" y="540" width="160" height="60" as="geometry" />
        </mxCell>
        <mxCell id="wkb4X_CLZkG0QTCTbJi_-29" value="" style="html=1;verticalLabelPosition=bottom;align=center;labelBackgroundColor=#ffffff;verticalAlign=top;strokeWidth=2;strokeColor=#0080F0;shadow=0;dashed=0;shape=mxgraph.ios7.icons.cloud;fillColor=#CCCCFF;" parent="1" vertex="1">
          <mxGeometry x="-130" y="670" width="120" height="60" as="geometry" />
        </mxCell>
        <mxCell id="wkb4X_CLZkG0QTCTbJi_-25" value="" style="rounded=0;whiteSpace=wrap;html=1;fillColor=none;strokeColor=#CCCCFF;" parent="1" vertex="1">
          <mxGeometry x="-200" y="270" width="430" height="350" as="geometry" />
        </mxCell>
        <mxCell id="mt7t5qOtKBUCOaAIjQfM-1" value="&amp;lt;FeedStore&amp;gt;" style="rounded=0;whiteSpace=wrap;html=1;fillColor=#e1d5e7;strokeColor=#9673a6;" parent="1" vertex="1">
          <mxGeometry x="810" y="290" width="120" height="60" as="geometry" />
        </mxCell>
        <mxCell id="mt7t5qOtKBUCOaAIjQfM-3" value="" style="rounded=0;whiteSpace=wrap;html=1;fillColor=none;strokeColor=#7EA6E0;" parent="1" vertex="1">
          <mxGeometry x="640" y="200" width="470" height="240" as="geometry" />
        </mxCell>
        <mxCell id="mt7t5qOtKBUCOaAIjQfM-4" value="&lt;font&gt;Feed Cache module&lt;/font&gt;" style="text;html=1;align=center;verticalAlign=middle;resizable=0;points=[];autosize=1;strokeColor=none;fillColor=none;fontColor=#7EA6E0;" parent="1" vertex="1">
          <mxGeometry x="980" y="170" width="130" height="30" as="geometry" />
        </mxCell>
        <mxCell id="9Ri4bayZUHAKm8TNs4ZH-2" value="RemoteFeedItem" style="rounded=0;whiteSpace=wrap;html=1;fillColor=#dae8fc;strokeColor=#6c8ebf;" parent="1" vertex="1">
          <mxGeometry x="-140" y="370" width="160" height="60" as="geometry" />
        </mxCell>
        <mxCell id="9Ri4bayZUHAKm8TNs4ZH-5" value="FeedImage" style="rounded=0;whiteSpace=wrap;html=1;fillColor=#f8cecc;strokeColor=#b85450;" parent="1" vertex="1">
          <mxGeometry x="460" y="400" width="120" height="60" as="geometry" />
        </mxCell>
        <mxCell id="9Ri4bayZUHAKm8TNs4ZH-9" value="LocalFeedImage" style="rounded=0;whiteSpace=wrap;html=1;fillColor=#e1d5e7;strokeColor=#9673a6;" parent="1" vertex="1">
          <mxGeometry x="810" y="218" width="120" height="60" as="geometry" />
        </mxCell>
        <mxCell id="0OMT_AVmc9sH3o9Od09E-3" value="FeedCachePolicy" style="rounded=0;whiteSpace=wrap;html=1;fillColor=#e1d5e7;strokeColor=#9673a6;" parent="1" vertex="1">
          <mxGeometry x="660" y="370" width="120" height="60" as="geometry" />
        </mxCell>
        <mxCell id="xbsetehJaYri_gD3bekH-2" style="edgeStyle=orthogonalEdgeStyle;rounded=0;orthogonalLoop=1;jettySize=auto;html=1;entryX=1;entryY=0.5;entryDx=0;entryDy=0;dashed=1;" parent="1" source="xbsetehJaYri_gD3bekH-1" target="mt7t5qOtKBUCOaAIjQfM-1" edge="1">
          <mxGeometry relative="1" as="geometry" />
        </mxCell>
        <mxCell id="xbsetehJaYri_gD3bekH-3" style="edgeStyle=orthogonalEdgeStyle;rounded=0;orthogonalLoop=1;jettySize=auto;html=1;entryX=1;entryY=0.75;entryDx=0;entryDy=0;" parent="1" source="xbsetehJaYri_gD3bekH-1" target="9Ri4bayZUHAKm8TNs4ZH-9" edge="1">
          <mxGeometry relative="1" as="geometry">
            <Array as="points">
              <mxPoint x="1030" y="263" />
            </Array>
          </mxGeometry>
        </mxCell>
        <mxCell id="xbsetehJaYri_gD3bekH-5" style="edgeStyle=orthogonalEdgeStyle;rounded=0;orthogonalLoop=1;jettySize=auto;html=1;" parent="1" source="xbsetehJaYri_gD3bekH-1" target="xbsetehJaYri_gD3bekH-4" edge="1">
          <mxGeometry relative="1" as="geometry" />
        </mxCell>
        <mxCell id="xbsetehJaYri_gD3bekH-1" value="CoreDataFeedStore" style="rounded=0;whiteSpace=wrap;html=1;fillColor=#e1d5e7;strokeColor=#9673a6;" parent="1" vertex="1">
          <mxGeometry x="980" y="390" width="120" height="40" as="geometry" />
        </mxCell>
        <mxCell id="xbsetehJaYri_gD3bekH-4" value="Core Data" style="shape=cylinder3;whiteSpace=wrap;html=1;boundedLbl=1;backgroundOutline=1;size=15;fillColor=#dae8fc;strokeColor=#6c8ebf;" parent="1" vertex="1">
          <mxGeometry x="1010" y="505" width="60" height="80" as="geometry" />
        </mxCell>
        <mxCell id="9oJwUBDEAIhy3Kt25aec-2" value="UIRefreshControl" style="rounded=0;whiteSpace=wrap;html=1;fillColor=#ffe6cc;strokeColor=#d79b00;" parent="1" vertex="1">
          <mxGeometry x="520" y="1080" width="120" height="40" as="geometry" />
        </mxCell>
        <mxCell id="9oJwUBDEAIhy3Kt25aec-6" value="Feed iOS UI module" style="text;html=1;align=center;verticalAlign=middle;resizable=0;points=[];autosize=1;strokeColor=none;fillColor=none;fontColor=#FF3333;" parent="1" vertex="1">
          <mxGeometry x="210" y="704" width="130" height="30" as="geometry" />
        </mxCell>
        <mxCell id="9oJwUBDEAIhy3Kt25aec-7" value="UIKit" style="text;html=1;align=center;verticalAlign=middle;resizable=0;points=[];autosize=1;strokeColor=none;fillColor=none;fontColor=#D6B656;" parent="1" vertex="1">
          <mxGeometry x="221" y="1012" width="50" height="30" as="geometry" />
        </mxCell>
        <mxCell id="9oJwUBDEAIhy3Kt25aec-8" value="" style="rounded=0;whiteSpace=wrap;html=1;fillColor=none;strokeColor=#D6B656;" parent="1" vertex="1">
          <mxGeometry x="222" y="1042" width="728" height="90" as="geometry" />
        </mxCell>
        <mxCell id="8CEh4J7_kmvw50hiCcKO-1" value="UITableView&lt;br&gt;" style="rounded=0;whiteSpace=wrap;html=1;fillColor=#ffe6cc;strokeColor=#d79b00;" parent="1" vertex="1">
          <mxGeometry x="414" y="1080" width="96" height="40" as="geometry" />
        </mxCell>
        <mxCell id="8CEh4J7_kmvw50hiCcKO-2" value="UITableViewCell&lt;br&gt;" style="rounded=0;whiteSpace=wrap;html=1;fillColor=#ffe6cc;strokeColor=#d79b00;" parent="1" vertex="1">
          <mxGeometry x="787" y="1080" width="126" height="40" as="geometry" />
        </mxCell>
        <mxCell id="8CEh4J7_kmvw50hiCcKO-11" style="edgeStyle=orthogonalEdgeStyle;rounded=0;orthogonalLoop=1;jettySize=auto;html=1;endArrow=block;endFill=0;exitX=0.5;exitY=1;exitDx=0;exitDy=0;entryX=0.5;entryY=0;entryDx=0;entryDy=0;" parent="1" source="8CEh4J7_kmvw50hiCcKO-4" target="8CEh4J7_kmvw50hiCcKO-2" edge="1">
          <mxGeometry relative="1" as="geometry">
            <Array as="points">
              <mxPoint x="850" y="1080" />
            </Array>
            <mxPoint x="717" y="1040" as="sourcePoint" />
          </mxGeometry>
        </mxCell>
        <mxCell id="8CEh4J7_kmvw50hiCcKO-4" value="FeedViewCell&lt;br&gt;" style="rounded=0;whiteSpace=wrap;html=1;fillColor=#ffe6cc;strokeColor=#d79b00;" parent="1" vertex="1">
          <mxGeometry x="770" y="839" width="160" height="40" as="geometry" />
        </mxCell>
        <mxCell id="8CEh4J7_kmvw50hiCcKO-7" value="&amp;lt;FeedImageDataLoader&amp;gt;" style="rounded=0;whiteSpace=wrap;html=1;fillColor=#fff2cc;strokeColor=#d6b656;" parent="1" vertex="1">
          <mxGeometry x="720" y="640" width="160" height="30" as="geometry" />
        </mxCell>
        <mxCell id="8CEh4J7_kmvw50hiCcKO-8" value="&amp;lt;FeedImageDataLoaderTask&amp;gt;" style="rounded=0;whiteSpace=wrap;html=1;fillColor=#fff2cc;strokeColor=#d6b656;" parent="1" vertex="1">
          <mxGeometry x="733" y="570" width="180" height="30" as="geometry" />
        </mxCell>
        <mxCell id="8CEh4J7_kmvw50hiCcKO-12" value="" style="rounded=0;whiteSpace=wrap;html=1;fillColor=none;strokeColor=#FF3333;" parent="1" vertex="1">
          <mxGeometry x="220" y="730" width="730" height="282" as="geometry" />
        </mxCell>
        <mxCell id="SuTR34b2t1vn6Ia5oeuN-3" style="edgeStyle=orthogonalEdgeStyle;rounded=0;orthogonalLoop=1;jettySize=auto;html=1;exitX=1;exitY=0.75;exitDx=0;exitDy=0;" parent="1" source="SuTR34b2t1vn6Ia5oeuN-2" target="8CEh4J7_kmvw50hiCcKO-4" edge="1">
          <mxGeometry relative="1" as="geometry">
            <Array as="points">
              <mxPoint x="850" y="780" />
            </Array>
          </mxGeometry>
        </mxCell>
        <mxCell id="YCQI0EegwTWnJTySmXUa-21" style="edgeStyle=orthogonalEdgeStyle;rounded=0;orthogonalLoop=1;jettySize=auto;html=1;entryX=0;entryY=0.5;entryDx=0;entryDy=0;" parent="1" source="SuTR34b2t1vn6Ia5oeuN-2" target="YCQI0EegwTWnJTySmXUa-3" edge="1">
          <mxGeometry relative="1" as="geometry" />
        </mxCell>
        <mxCell id="yPhr5imBNQAIKUohlBRB-2" style="edgeStyle=orthogonalEdgeStyle;rounded=0;orthogonalLoop=1;jettySize=auto;html=1;entryX=0.25;entryY=0;entryDx=0;entryDy=0;" parent="1" source="SuTR34b2t1vn6Ia5oeuN-2" target="yPhr5imBNQAIKUohlBRB-1" edge="1">
          <mxGeometry relative="1" as="geometry" />
        </mxCell>
        <mxCell id="SuTR34b2t1vn6Ia5oeuN-2" value="FeedImageCellController" style="rounded=0;whiteSpace=wrap;html=1;fillColor=#ffe6cc;strokeColor=#d79b00;" parent="1" vertex="1">
          <mxGeometry x="390" y="750" width="160" height="40" as="geometry" />
        </mxCell>
        <mxCell id="SuTR34b2t1vn6Ia5oeuN-7" style="edgeStyle=orthogonalEdgeStyle;rounded=0;orthogonalLoop=1;jettySize=auto;html=1;" parent="1" source="SuTR34b2t1vn6Ia5oeuN-6" target="9oJwUBDEAIhy3Kt25aec-2" edge="1">
          <mxGeometry relative="1" as="geometry" />
        </mxCell>
        <mxCell id="YCQI0EegwTWnJTySmXUa-9" style="edgeStyle=orthogonalEdgeStyle;rounded=0;orthogonalLoop=1;jettySize=auto;html=1;entryX=0.75;entryY=1;entryDx=0;entryDy=0;" parent="1" source="SuTR34b2t1vn6Ia5oeuN-6" target="YCQI0EegwTWnJTySmXUa-2" edge="1">
          <mxGeometry relative="1" as="geometry">
            <Array as="points">
              <mxPoint x="640" y="960" />
              <mxPoint x="650" y="960" />
              <mxPoint x="650" y="690" />
              <mxPoint x="570" y="690" />
            </Array>
          </mxGeometry>
        </mxCell>
        <mxCell id="SuTR34b2t1vn6Ia5oeuN-6" value="FeedRefreshViewController" style="rounded=0;whiteSpace=wrap;html=1;fillColor=#ffe6cc;strokeColor=#d79b00;" parent="1" vertex="1">
          <mxGeometry x="500" y="976" width="160" height="30" as="geometry" />
        </mxCell>
        <mxCell id="SuTR34b2t1vn6Ia5oeuN-10" style="edgeStyle=orthogonalEdgeStyle;rounded=0;orthogonalLoop=1;jettySize=auto;html=1;dashed=1;" parent="1" source="SuTR34b2t1vn6Ia5oeuN-9" target="SuTR34b2t1vn6Ia5oeuN-6" edge="1">
          <mxGeometry relative="1" as="geometry" />
        </mxCell>
        <mxCell id="SuTR34b2t1vn6Ia5oeuN-11" style="edgeStyle=orthogonalEdgeStyle;rounded=0;orthogonalLoop=1;jettySize=auto;html=1;entryX=1;entryY=0.25;entryDx=0;entryDy=0;dashed=1;" parent="1" source="SuTR34b2t1vn6Ia5oeuN-9" target="wkb4X_CLZkG0QTCTbJi_-7" edge="1">
          <mxGeometry relative="1" as="geometry">
            <Array as="points">
              <mxPoint x="510" y="920" />
            </Array>
          </mxGeometry>
        </mxCell>
        <mxCell id="YCQI0EegwTWnJTySmXUa-12" style="edgeStyle=orthogonalEdgeStyle;rounded=0;orthogonalLoop=1;jettySize=auto;html=1;entryX=0.25;entryY=1;entryDx=0;entryDy=0;dashed=1;" parent="1" source="SuTR34b2t1vn6Ia5oeuN-9" target="wkb4X_CLZkG0QTCTbJi_-1" edge="1">
          <mxGeometry relative="1" as="geometry" />
        </mxCell>
        <mxCell id="YCQI0EegwTWnJTySmXUa-13" style="edgeStyle=orthogonalEdgeStyle;rounded=0;orthogonalLoop=1;jettySize=auto;html=1;dashed=1;exitX=0.25;exitY=0;exitDx=0;exitDy=0;" parent="1" source="SuTR34b2t1vn6Ia5oeuN-9" target="SuTR34b2t1vn6Ia5oeuN-2" edge="1">
          <mxGeometry relative="1" as="geometry" />
        </mxCell>
        <mxCell id="YCQI0EegwTWnJTySmXUa-14" style="edgeStyle=orthogonalEdgeStyle;rounded=0;orthogonalLoop=1;jettySize=auto;html=1;entryX=0.25;entryY=1;entryDx=0;entryDy=0;dashed=1;" parent="1" source="SuTR34b2t1vn6Ia5oeuN-9" target="YCQI0EegwTWnJTySmXUa-2" edge="1">
          <mxGeometry relative="1" as="geometry">
            <Array as="points">
              <mxPoint x="560" y="720" />
              <mxPoint x="510" y="720" />
            </Array>
          </mxGeometry>
        </mxCell>
        <mxCell id="YCQI0EegwTWnJTySmXUa-15" style="edgeStyle=orthogonalEdgeStyle;rounded=0;orthogonalLoop=1;jettySize=auto;html=1;dashed=1;exitX=0.819;exitY=0;exitDx=0;exitDy=0;exitPerimeter=0;" parent="1" source="SuTR34b2t1vn6Ia5oeuN-9" target="YCQI0EegwTWnJTySmXUa-3" edge="1">
          <mxGeometry relative="1" as="geometry">
            <Array as="points">
              <mxPoint x="611" y="838" />
              <mxPoint x="610" y="838" />
              <mxPoint x="610" y="630" />
              <mxPoint x="586" y="630" />
            </Array>
          </mxGeometry>
        </mxCell>
        <mxCell id="YCQI0EegwTWnJTySmXUa-16" style="edgeStyle=orthogonalEdgeStyle;rounded=0;orthogonalLoop=1;jettySize=auto;html=1;entryX=0.25;entryY=1;entryDx=0;entryDy=0;dashed=1;" parent="1" source="SuTR34b2t1vn6Ia5oeuN-9" target="8CEh4J7_kmvw50hiCcKO-7" edge="1">
          <mxGeometry relative="1" as="geometry">
            <Array as="points">
              <mxPoint x="580" y="740" />
              <mxPoint x="760" y="740" />
            </Array>
          </mxGeometry>
        </mxCell>
        <mxCell id="YCQI0EegwTWnJTySmXUa-17" style="edgeStyle=orthogonalEdgeStyle;rounded=0;orthogonalLoop=1;jettySize=auto;html=1;dashed=1;exitX=0.925;exitY=0;exitDx=0;exitDy=0;exitPerimeter=0;" parent="1" source="SuTR34b2t1vn6Ia5oeuN-9" target="8CEh4J7_kmvw50hiCcKO-8" edge="1">
          <mxGeometry relative="1" as="geometry">
            <Array as="points">
              <mxPoint x="628" y="810" />
              <mxPoint x="890" y="810" />
            </Array>
          </mxGeometry>
        </mxCell>
        <mxCell id="SuTR34b2t1vn6Ia5oeuN-9" value="FeedUIComposer" style="rounded=0;whiteSpace=wrap;html=1;fillColor=#ffe6cc;strokeColor=#d79b00;" parent="1" vertex="1">
          <mxGeometry x="480" y="839" width="160" height="30" as="geometry" />
        </mxCell>
        <mxCell id="YCQI0EegwTWnJTySmXUa-4" style="edgeStyle=orthogonalEdgeStyle;rounded=0;orthogonalLoop=1;jettySize=auto;html=1;entryX=0.5;entryY=1;entryDx=0;entryDy=0;" parent="1" source="YCQI0EegwTWnJTySmXUa-2" target="wkb4X_CLZkG0QTCTbJi_-1" edge="1">
          <mxGeometry relative="1" as="geometry" />
        </mxCell>
        <mxCell id="YCQI0EegwTWnJTySmXUa-5" style="edgeStyle=orthogonalEdgeStyle;rounded=0;orthogonalLoop=1;jettySize=auto;html=1;entryX=0.25;entryY=1;entryDx=0;entryDy=0;" parent="1" source="YCQI0EegwTWnJTySmXUa-2" target="9Ri4bayZUHAKm8TNs4ZH-5" edge="1">
          <mxGeometry relative="1" as="geometry">
            <Array as="points">
              <mxPoint x="490" y="660" />
            </Array>
          </mxGeometry>
        </mxCell>
        <mxCell id="YCQI0EegwTWnJTySmXUa-2" value="FeedViewModel" style="rounded=0;whiteSpace=wrap;html=1;fillColor=#fff2cc;strokeColor=#d6b656;" parent="1" vertex="1">
          <mxGeometry x="480" y="640" width="120" height="30" as="geometry" />
        </mxCell>
        <mxCell id="YCQI0EegwTWnJTySmXUa-6" style="edgeStyle=orthogonalEdgeStyle;rounded=0;orthogonalLoop=1;jettySize=auto;html=1;" parent="1" source="YCQI0EegwTWnJTySmXUa-3" target="9Ri4bayZUHAKm8TNs4ZH-5" edge="1">
          <mxGeometry relative="1" as="geometry">
            <Array as="points">
              <mxPoint x="586" y="550" />
              <mxPoint x="520" y="550" />
            </Array>
          </mxGeometry>
        </mxCell>
        <mxCell id="YCQI0EegwTWnJTySmXUa-7" style="edgeStyle=orthogonalEdgeStyle;rounded=0;orthogonalLoop=1;jettySize=auto;html=1;" parent="1" source="YCQI0EegwTWnJTySmXUa-3" target="8CEh4J7_kmvw50hiCcKO-8" edge="1">
          <mxGeometry relative="1" as="geometry" />
        </mxCell>
        <mxCell id="YCQI0EegwTWnJTySmXUa-8" style="edgeStyle=orthogonalEdgeStyle;rounded=0;orthogonalLoop=1;jettySize=auto;html=1;entryX=0;entryY=0.5;entryDx=0;entryDy=0;" parent="1" source="YCQI0EegwTWnJTySmXUa-3" target="8CEh4J7_kmvw50hiCcKO-7" edge="1">
          <mxGeometry relative="1" as="geometry">
            <Array as="points">
              <mxPoint x="691" y="590" />
              <mxPoint x="691" y="655" />
            </Array>
          </mxGeometry>
        </mxCell>
        <mxCell id="YCQI0EegwTWnJTySmXUa-3" value="FeedImageViewModel" style="rounded=0;whiteSpace=wrap;html=1;fillColor=#fff2cc;strokeColor=#d6b656;" parent="1" vertex="1">
          <mxGeometry x="511" y="570" width="150" height="30" as="geometry" />
        </mxCell>
        <mxCell id="YCQI0EegwTWnJTySmXUa-10" style="edgeStyle=orthogonalEdgeStyle;rounded=0;orthogonalLoop=1;jettySize=auto;html=1;exitX=0.5;exitY=1;exitDx=0;exitDy=0;" parent="1" source="SuTR34b2t1vn6Ia5oeuN-6" target="SuTR34b2t1vn6Ia5oeuN-6" edge="1">
          <mxGeometry relative="1" as="geometry" />
        </mxCell>
        <mxCell id="YCQI0EegwTWnJTySmXUa-18" value="" style="rounded=0;whiteSpace=wrap;html=1;fillColor=none;strokeColor=#CCCC00;" parent="1" vertex="1">
          <mxGeometry x="414" y="560" width="539" height="140" as="geometry" />
        </mxCell>
        <mxCell id="YCQI0EegwTWnJTySmXUa-19" value="Feed Presentation model" style="text;html=1;align=center;verticalAlign=middle;resizable=0;points=[];autosize=1;strokeColor=none;fillColor=none;fontColor=#FF3333;" parent="1" vertex="1">
          <mxGeometry x="580" y="534" width="160" height="30" as="geometry" />
        </mxCell>
        <mxCell id="yPhr5imBNQAIKUohlBRB-1" value="UIImage" style="rounded=0;whiteSpace=wrap;html=1;fillColor=#ffe6cc;strokeColor=#d79b00;" parent="1" vertex="1">
          <mxGeometry x="660" y="1080" width="80" height="40" as="geometry" />
        </mxCell>
      </root>
    </mxGraphModel>
  </diagram>
</mxfile>
